<?xml version="1.0" encoding="UTF-8"?>
<svg id="Layer_2" data-name="Layer 2" xmlns="http://www.w3.org/2000/svg" xmlns:xlink="http://www.w3.org/1999/xlink" viewBox="0 0 308.28 231.61">
  <defs>
    <style>
      .cls-1 {
        letter-spacing: -.02em;
      }

      .cls-2 {
        fill: url(#Gold_4);
      }

      .cls-2, .cls-3, .cls-4, .cls-5, .cls-6, .cls-7, .cls-8, .cls-9, .cls-10, .cls-11, .cls-12, .cls-13, .cls-14, .cls-15, .cls-16, .cls-17, .cls-18, .cls-19, .cls-20, .cls-21, .cls-22, .cls-23, .cls-24 {
        stroke-width: 0px;
      }

      .cls-25 {
        letter-spacing: -.03em;
      }

      .cls-26 {
        font-size: 10.66px;
      }

      .cls-26, .cls-27, .cls-28, .cls-19 {
        fill: #fff;
      }

      .cls-26, .cls-27, .cls-28, .cls-29 {
        font-family: ProductSans-Bold, 'Product Sans';
        font-weight: 700;
      }

      .cls-3 {
        opacity: .8;
      }

      .cls-3, .cls-4, .cls-8, .cls-9 {
        fill: #f9df46;
      }

      .cls-4 {
        opacity: .42;
      }

      .cls-27, .cls-28 {
        font-size: 12.93px;
      }

      .cls-5 {
        fill: url(#linear-gradient-4);
        opacity: .25;
      }

      .cls-6 {
        fill: url(#linear-gradient-3);
      }

      .cls-7 {
        fill: url(#linear-gradient);
        opacity: .5;
      }

      .cls-30 {
        letter-spacing: 0em;
      }

      .cls-8 {
        opacity: .6;
      }

      .cls-9 {
        opacity: .3;
      }

      .cls-28 {
        opacity: .9;
      }

      .cls-10 {
        fill: url(#Gold_4-2);
      }

      .cls-11 {
        fill: url(#Gold_4-4);
      }

      .cls-12 {
        fill: url(#Gold_4-3);
      }

      .cls-13 {
        fill: url(#Gold_4-5);
      }

      .cls-14 {
        fill: url(#Gold_4-6);
      }

      .cls-15 {
        fill: url(#Gold_4-8);
      }

      .cls-16 {
        fill: url(#Gold_4-7);
      }

      .cls-17 {
        fill: url(#Gold_4-9);
      }

      .cls-18, .cls-29 {
        fill: #752e18;
      }

      .cls-20 {
        fill: url(#linear-gradient-2);
        opacity: .7;
      }

      .cls-21 {
        fill: url(#Gold_4-11);
      }

      .cls-22 {
        fill: url(#Gold_4-13);
      }

      .cls-23 {
        fill: url(#Gold_4-12);
      }

      .cls-24 {
        fill: url(#Gold_4-10);
      }

      .cls-29 {
        font-size: 16.46px;
      }
    </style>
    <linearGradient id="Gold_4" data-name="Gold 4" x1="1217.06" y1="85.13" x2="1300.68" y2="103.86" gradientTransform="translate(-1218.05)" gradientUnits="userSpaceOnUse">
      <stop offset="0" stop-color="#f9b825"/>
      <stop offset=".25" stop-color="#fdf5ce"/>
      <stop offset=".3" stop-color="#f6e9bc"/>
      <stop offset=".4" stop-color="#e6ca8f"/>
      <stop offset=".54" stop-color="#cb9948"/>
      <stop offset=".6" stop-color="#c1852b"/>
      <stop offset=".87" stop-color="#eecd86"/>
      <stop offset="1" stop-color="#fdf5ce"/>
    </linearGradient>
    <linearGradient id="linear-gradient" x1="1449.4" y1="136.25" x2="1380.8" y2="176.05" gradientTransform="translate(-1218.05)" gradientUnits="userSpaceOnUse">
      <stop offset="0" stop-color="#5f6060"/>
      <stop offset=".26" stop-color="#6b6c6c"/>
      <stop offset=".51" stop-color="#717272"/>
      <stop offset=".79" stop-color="#6c6d6d"/>
      <stop offset="1" stop-color="#646565"/>
    </linearGradient>
    <linearGradient id="linear-gradient-2" x1="1449.4" y1="105.92" x2="1380.8" y2="145.72" xlink:href="#linear-gradient"/>
    <linearGradient id="linear-gradient-3" x1="1378.28" y1="116.61" x2="1451.92" y2="74.09" gradientTransform="translate(-1218.05)" gradientUnits="userSpaceOnUse">
      <stop offset="0" stop-color="#c84c9a"/>
      <stop offset=".1" stop-color="#c65488"/>
      <stop offset=".29" stop-color="#c46b5c"/>
      <stop offset=".48" stop-color="#c1852b"/>
      <stop offset=".76" stop-color="#ec8e22"/>
      <stop offset="1" stop-color="#fdf5ce"/>
    </linearGradient>
    <linearGradient id="linear-gradient-4" x1="1448.99" y1="166" x2="1381.81" y2="204.98" xlink:href="#linear-gradient"/>
    <linearGradient id="Gold_4-2" data-name="Gold 4" x1="902.13" y1="129.09" x2="969.78" y2="144.25" gradientTransform="translate(-787.64 -109.34)" xlink:href="#Gold_4"/>
    <linearGradient id="Gold_4-3" data-name="Gold 4" x1="902.13" y1="129.09" x2="969.78" y2="144.25" gradientTransform="translate(-787.64 -109.34)" xlink:href="#Gold_4"/>
    <linearGradient id="Gold_4-4" data-name="Gold 4" x1="902.13" y1="129.09" x2="969.78" y2="144.25" gradientTransform="translate(-787.64 -109.34)" xlink:href="#Gold_4"/>
    <linearGradient id="Gold_4-5" data-name="Gold 4" x1="902.13" y1="129.09" x2="969.78" y2="144.25" gradientTransform="translate(-787.64 -109.34)" xlink:href="#Gold_4"/>
    <linearGradient id="Gold_4-6" data-name="Gold 4" x1="902.13" y1="129.09" x2="969.78" y2="144.25" gradientTransform="translate(-787.64 -109.34)" xlink:href="#Gold_4"/>
    <linearGradient id="Gold_4-7" data-name="Gold 4" x1="902.13" y1="129.09" x2="969.78" y2="144.25" gradientTransform="translate(-787.64 -109.34)" xlink:href="#Gold_4"/>
    <linearGradient id="Gold_4-8" data-name="Gold 4" x1="902.13" y1="129.09" x2="969.78" y2="144.25" gradientTransform="translate(-787.64 -109.34)" xlink:href="#Gold_4"/>
    <linearGradient id="Gold_4-9" data-name="Gold 4" x1="902.13" y1="129.09" x2="969.78" y2="144.25" gradientTransform="translate(-787.64 -109.34)" xlink:href="#Gold_4"/>
    <linearGradient id="Gold_4-10" data-name="Gold 4" x1="902.13" y1="129.09" x2="969.78" y2="144.25" gradientTransform="translate(-787.64 -109.34)" xlink:href="#Gold_4"/>
    <linearGradient id="Gold_4-11" data-name="Gold 4" x1="902.13" y1="129.09" x2="969.78" y2="144.25" gradientTransform="translate(-787.64 -109.34)" xlink:href="#Gold_4"/>
    <linearGradient id="Gold_4-12" data-name="Gold 4" x1="902.13" y1="129.09" x2="969.78" y2="144.25" gradientTransform="translate(-787.64 -109.34)" xlink:href="#Gold_4"/>
    <linearGradient id="Gold_4-13" data-name="Gold 4" x1="902.13" y1="129.09" x2="969.78" y2="144.25" gradientTransform="translate(-787.64 -109.34)" xlink:href="#Gold_4"/>
  </defs>
  <g id="Layer_1-2" data-name="Layer 1">
    <g>
      <g>
        <text class="cls-26" transform="translate(14.1 67.32)"><tspan x="0" y="0">HOMMES</tspan></text>
        <text class="cls-26" transform="translate(172.32 67.32)"><tspan x="0" y="0">FEMMES</tspan></text>
        <g>
          <g>
            <rect class="cls-4" x="3.81" y="170.67" width="74.01" height="30.47"/>
            <rect class="cls-8" x="3.81" y="140.2" width="74.01" height="30.47"/>
            <rect class="cls-3" x="3.81" y="109.73" width="74.01" height="30.47"/>
            <rect class="cls-2" y="77.69" width="81.63" height="33.61" rx="3.38" ry="3.38"/>
            <text/>
            <text class="cls-27" transform="translate(98.38 68.13)"><tspan x="0" y="0">1 Mois</tspan></text>
            <text class="cls-27" transform="translate(251.6 68.13)"><tspan x="0" y="0">1 Mois</tspan></text>
            <text class="cls-27" transform="translate(25.23 190.53)"><tspan x="0" y="0">2</tspan><tspan class="cls-1" x="7.05" y="0"> </tspan><tspan class="cls-25" x="9.63" y="0">f</tspan><tspan class="cls-30" x="14.38" y="0">o</tspan><tspan x="21.7" y="0">is</tspan></text>
            <text class="cls-27" transform="translate(90.13 99.12)"><tspan x="0" y="0">4900 DA</tspan></text>
            <text class="cls-27" transform="translate(25.13 160.06)"><tspan x="0" y="0">3</tspan><tspan class="cls-1" x="7.24" y="0"> </tspan><tspan class="cls-25" x="9.83" y="0">f</tspan><tspan class="cls-30" x="14.57" y="0">o</tspan><tspan x="21.89" y="0">is</tspan></text>
            <text class="cls-28" transform="translate(90.49 129.59)"><tspan x="0" y="0">3900 DA</tspan></text>
            <text class="cls-27" transform="translate(24.77 129.59)"><tspan x="0" y="0">4</tspan><tspan class="cls-1" x="7.97" y="0"> </tspan><tspan class="cls-25" x="10.55" y="0">f</tspan><tspan class="cls-30" x="15.3" y="0">o</tspan><tspan x="22.62" y="0">is</tspan></text>
            <text class="cls-28" transform="translate(90.45 160.06)"><tspan x="0" y="0">3500 DA</tspan></text>
            <text class="cls-29" transform="translate(23.85 100.39)"><tspan x="0" y="0">illimité</tspan></text>
            <text class="cls-28" transform="translate(90.59 190.53)"><tspan x="0" y="0">2900 DA</tspan></text>
            <path class="cls-9" d="M8.31,231.61h65.01c2.49,0,4.5-2.02,4.5-4.5v-25.97H3.81v25.97c0,2.49,2.02,4.5,4.5,4.5Z"/>
            <text class="cls-27" transform="translate(26.01 221.01)"><tspan x="0" y="0">1</tspan><tspan class="cls-1" x="5.48" y="0"> </tspan><tspan class="cls-25" x="8.07" y="0">f</tspan><tspan class="cls-30" x="12.81" y="0">o</tspan><tspan x="20.13" y="0">is</tspan></text>
            <text class="cls-28" transform="translate(91.37 221.01)"><tspan x="0" y="0">1900 DA</tspan></text>
            <g>
              <rect class="cls-18" x="6.78" y="99.47" width="10.71" height="1.53"/>
              <path class="cls-18" d="M17.52,98.48H6.79l-2.83-7.44,5.16,1.05,3.04-4.2,3.03,4.2,5.16-1.05-2.83,7.44ZM7.49,97.46h9.32l1.92-5.06-3.99.81-2.59-3.59-2.59,3.59-3.99-.81,1.92,5.06Z"/>
            </g>
          </g>
          <g>
            <rect class="cls-7" x="160.04" y="140.91" width="74.01" height="30.47"/>
            <rect class="cls-20" x="160.04" y="110.59" width="74.01" height="30.47"/>
            <rect class="cls-6" x="156.23" y="78.55" width="81.63" height="33.61" rx="3.38" ry="3.38"/>
            <text class="cls-27" transform="translate(181.46 160.78)"><tspan x="0" y="0">2</tspan><tspan class="cls-1" x="7.05" y="0"> </tspan><tspan class="cls-25" x="9.63" y="0">f</tspan><tspan class="cls-30" x="14.38" y="0">o</tspan><tspan x="21.7" y="0">is</tspan></text>
            <text class="cls-27" transform="translate(246.72 99.98)"><tspan x="0" y="0">3900 DA</tspan></text>
            <text class="cls-28" transform="translate(246.82 130.45)"><tspan x="0" y="0">2900 DA</tspan></text>
            <text class="cls-27" transform="translate(181.36 130.45)"><tspan x="0" y="0">3</tspan><tspan class="cls-1" x="7.24" y="0"> </tspan><tspan class="cls-25" x="9.83" y="0">f</tspan><tspan class="cls-30" x="14.57" y="0">o</tspan><tspan x="21.89" y="0">is</tspan></text>
            <text class="cls-27" transform="translate(181 99.98)"><tspan x="0" y="0">4</tspan><tspan class="cls-1" x="7.97" y="0"> </tspan><tspan class="cls-25" x="10.55" y="0">f</tspan><tspan class="cls-30" x="15.3" y="0">o</tspan><tspan x="22.62" y="0">is</tspan></text>
            <text class="cls-28" transform="translate(246.51 160.78)"><tspan x="0" y="0">2400 DA</tspan></text>
            <path class="cls-5" d="M164.54,201.85h65.01c2.49,0,4.5-2.02,4.5-4.5v-25.97h-74.01v25.97c0,2.49,2.02,4.5,4.5,4.5Z"/>
            <text class="cls-27" transform="translate(182.24 191.25)"><tspan x="0" y="0">1</tspan><tspan class="cls-1" x="5.48" y="0"> </tspan><tspan class="cls-25" x="8.07" y="0">f</tspan><tspan class="cls-30" x="12.81" y="0">o</tspan><tspan x="20.13" y="0">is</tspan></text>
            <text class="cls-28" transform="translate(247.5 191.25)"><tspan x="0" y="0">1500 DA</tspan></text>
            <g>
              <rect class="cls-19" x="163.01" y="100.32" width="10.71" height="1.53"/>
              <path class="cls-19" d="M173.75,99.33h-10.73l-2.83-7.44,5.16,1.05,3.04-4.2,3.03,4.2,5.16-1.05-2.83,7.44ZM163.73,98.32h9.32l1.92-5.06-3.99.81-2.59-3.59-2.59,3.59-3.99-.81,1.92,5.06Z"/>
            </g>
          </g>
        </g>
      </g>
      <g>
        <g>
          <path class="cls-19" d="M117.29,20.85h-3.36V4.25h3.36v16.6Z"/>
          <path class="cls-19" d="M124.02,14.59c0-.15-.08-.23-.23-.23h-1.28v6.48h-3.33V4.25h3.79c.88,0,1.72.08,2.5.24.78.16,1.44.42,1.97.79v6.71c-.15.2-.34.4-.57.59-.23.2-.46.38-.71.55.24.17.48.34.71.53.23.18.42.37.57.55v6.64h-3.42v-6.26ZM122.52,11.83h1.28c.15,0,.23-.08.23-.23v-4.82c0-.21-.11-.32-.32-.32h-1.19v5.37Z"/>
          <path class="cls-19" d="M133.38,21.17c-.7,0-1.42-.1-2.15-.31s-1.39-.53-1.96-.97V5.21c.58-.44,1.23-.76,1.96-.97s1.45-.31,2.15-.31,1.42.1,2.15.31,1.38.53,1.96.97v14.68c-.58.44-1.23.76-1.96.97s-1.45.31-2.15.31ZM133.91,18.82c.17,0,.25-.08.25-.23V6.51c0-.15-.08-.23-.25-.23h-1.05c-.17,0-.25.08-.25.23v12.08c0,.15.08.23.25.23h1.05Z"/>
          <path class="cls-19" d="M147.56,20.85h-3.36v-8.58l-1.55-2.51v11.1h-3.33V4.25h2.81l2.1,3.49v-3.49h3.33v16.6Z"/>
          <path class="cls-19" d="M157.13,6.51c0-.15-.08-.23-.25-.23h-1.05c-.17,0-.25.08-.25.23v12.08c0,.15.08.23.25.23h1.05c.17,0,.25-.08.25-.23v-4.89l-.46-.57v-1.58h3.79v8.33c-.58.44-1.23.76-1.96.97s-1.45.31-2.15.31-1.42-.1-2.15-.31-1.39-.53-1.96-.97V5.21c.58-.44,1.23-.76,1.96-.97s1.45-.31,2.15-.31,1.42.1,2.15.31,1.38.53,1.96.97v4.32h-3.33v-3.01Z"/>
          <path class="cls-19" d="M166.92,14.11c.17,0,.25-.08.25-.23V4.25h3.33v10.96c-.32.29-.7.53-1.13.71-.43.18-.89.31-1.36.39v4.54h-3.24v-4.54c-.47-.08-.92-.21-1.36-.39-.43-.18-.81-.42-1.13-.71V4.25h3.33v9.63c0,.15.08.23.25.23h1.05Z"/>
          <path class="cls-19" d="M177.49,8.93l1.8-4.68h3.36v16.6h-3.33v-9.93l-1.83,4-1.83-4v9.93h-3.33V4.25h3.36l1.8,4.68Z"/>
        </g>
        <g>
          <path class="cls-10" d="M115.99,32.41h-2.05v-10.16h2.05v10.16Z"/>
          <path class="cls-12" d="M120.11,28.58c0-.09-.05-.14-.14-.14h-.78v3.97h-2.04v-10.16h2.32c.54,0,1.05.05,1.53.15.48.1.88.26,1.21.48v4.11c-.09.12-.21.24-.35.36-.14.12-.28.23-.43.34.15.1.29.21.43.32.14.11.26.22.35.34v4.07h-2.1v-3.83ZM119.19,26.89h.78c.09,0,.14-.05.14-.14v-2.95c0-.13-.07-.2-.2-.2h-.73v3.29Z"/>
          <path class="cls-11" d="M125.84,32.61c-.43,0-.87-.06-1.31-.19-.45-.13-.85-.32-1.2-.59v-8.99c.35-.27.75-.47,1.2-.59.45-.13.89-.19,1.31-.19s.87.06,1.31.19c.45.13.85.32,1.2.59v8.99c-.35.27-.75.47-1.2.59-.45.13-.89.19-1.31.19ZM126.16,31.17c.1,0,.15-.05.15-.14v-7.39c0-.09-.05-.14-.15-.14h-.64c-.1,0-.15.05-.15.14v7.39c0,.09.05.14.15.14h.64Z"/>
          <path class="cls-13" d="M134.52,32.41h-2.05v-5.26l-.95-1.54v6.79h-2.04v-10.16h1.72l1.29,2.14v-2.14h2.04v10.16Z"/>
          <path class="cls-14" d="M139.34,25.98c0,.1,0,.17.02.19.01.02.05.05.1.08l2.77,1.31c.05.19.07.44.07.75v3.51c-.35.27-.75.47-1.19.59-.44.13-.87.19-1.3.19s-.86-.06-1.29-.19c-.43-.13-.83-.32-1.18-.59v-2.59h2.03v1.79c0,.09.05.14.15.14h.63c.1,0,.15-.05.15-.14v-2.15c0-.13,0-.21-.02-.25-.01-.04-.07-.08-.17-.13l-2.71-1.29c-.02-.09-.03-.21-.04-.36,0-.15-.01-.28-.01-.39v-3.62c.35-.27.75-.47,1.18-.59.43-.13.86-.19,1.29-.19s.86.06,1.3.19c.44.13.83.32,1.19.59v2.66h-2.03v-1.86c0-.09-.05-.14-.15-.14h-.63c-.1,0-.15.05-.15.14v2.35Z"/>
          <path class="cls-16" d="M144.46,32.41v-8.26l-.17-.15h-1.13v-1.75h4.7v1.75h-1.13l-.17.15v8.26h-2.1Z"/>
          <path class="cls-15" d="M151.72,28.58c0-.09-.05-.14-.14-.14h-.78v3.97h-2.04v-10.16h2.32c.54,0,1.05.05,1.53.15.48.1.88.26,1.21.48v4.11c-.09.12-.21.24-.35.36-.14.12-.28.23-.43.34.15.1.29.21.43.32.14.11.26.22.35.34v4.07h-2.1v-3.83ZM150.79,26.89h.78c.09,0,.14-.05.14-.14v-2.95c0-.13-.07-.2-.2-.2h-.73v3.29Z"/>
          <path class="cls-17" d="M154.93,22.25h3.98v1.75h-1.94v2.59h1.75v1.61h-1.75v2.47h1.94v1.75h-3.98v-10.16Z"/>
          <path class="cls-24" d="M165.01,32.41h-2.05v-5.26l-.95-1.54v6.79h-2.04v-10.16h1.72l1.29,2.14v-2.14h2.04v10.16Z"/>
          <path class="cls-21" d="M169.12,23.63c0-.09-.05-.14-.15-.14h-.64c-.1,0-.15.05-.15.14v7.39c0,.09.05.14.15.14h.64c.1,0,.15-.05.15-.14v-2.99l-.28-.35v-.96h2.32v5.1c-.35.27-.75.47-1.2.59-.45.13-.89.19-1.31.19s-.87-.06-1.31-.19c-.45-.13-.85-.32-1.2-.59v-8.99c.35-.27.75-.47,1.2-.59.45-.13.89-.19,1.31-.19s.87.06,1.31.19c.45.13.85.32,1.2.59v2.64h-2.04v-1.85Z"/>
          <path class="cls-23" d="M173.33,32.41v-8.26l-.17-.15h-1.13v-1.75h4.7v1.75h-1.13l-.17.15v8.26h-2.1Z"/>
          <path class="cls-22" d="M177.62,22.25h2.04v4.33h.99v-4.33h2.04v10.16h-2.04v-4.22h-.99v4.22h-2.04v-10.16Z"/>
        </g>
        <polygon class="cls-19" points="186.94 36.86 180.79 36.86 180.79 34.67 184.75 34.67 184.75 2.19 180.79 2.19 180.79 0 186.94 0 186.94 36.86"/>
        <polygon class="cls-19" points="115.9 36.86 109.76 36.86 109.76 0 115.9 0 115.9 2.19 111.94 2.19 111.94 34.67 115.9 34.67 115.9 36.86"/>
      </g>
    </g>
  </g>
</svg>